<svg width="100" height="100" viewBox="0 0 100 100" fill="none" xmlns="http://www.w3.org/2000/svg">
<path d="M26.731 68.9L26.2557 69.7798L26.2599 69.7821L26.731 68.9ZM18.511 61.16L17.6499 61.6684L17.6535 61.6745L17.6572 61.6806L18.511 61.16ZM18.511 38.9L17.6544 38.384L17.6526 38.387L18.511 38.9ZM26.731 31.1L26.2599 30.2179L26.2557 30.2202L26.731 31.1ZM58.531 38.9L57.6744 39.416L57.6772 39.4206L58.531 38.9ZM58.531 61.16L59.3848 61.6806L59.3876 61.676L58.531 61.16ZM50.311 68.9L50.7863 69.7798L50.311 68.9ZM45.271 61.76L45.7596 62.6325L45.7662 62.6288L45.7727 62.625L45.271 61.76ZM49.951 56.96L49.0817 56.4657L49.078 56.4722L49.0744 56.4787L49.951 56.96ZM49.951 43.04L49.0744 43.5213L49.078 43.5278L49.0817 43.5343L49.951 43.04ZM45.271 38.3L44.7693 39.165L44.7758 39.1688L44.7824 39.1725L45.271 38.3ZM31.831 38.3L32.3196 39.1725L32.3262 39.1688L32.3327 39.165L31.831 38.3ZM27.091 43.04L26.2217 42.5457L26.218 42.5522L26.2144 42.5587L27.091 43.04ZM27.091 56.96L26.2144 57.4413L26.218 57.4478L26.2217 57.4543L27.091 56.96ZM31.831 61.76L31.3293 62.625L31.3358 62.6288L31.3424 62.6325L31.831 61.76ZM38.551 70.72C34.3398 70.72 30.564 69.8135 27.2021 68.0179L26.2599 69.7821C29.938 71.7465 34.0422 72.72 38.551 72.72V70.72ZM27.2063 68.0202C23.8772 66.2217 21.2699 63.7637 19.3648 60.6394L17.6572 61.6806C19.7522 65.1163 22.6248 67.8183 26.2557 69.7798L27.2063 68.0202ZM19.3721 60.6516C17.5093 57.4962 16.571 53.9539 16.571 50H14.571C14.571 54.2861 15.5927 58.1838 17.6499 61.6684L19.3721 60.6516ZM16.571 50C16.571 46.046 17.5093 42.5258 19.3694 39.413L17.6526 38.387C15.5927 41.8342 14.571 45.714 14.571 50H16.571ZM19.3676 39.416C21.2734 36.2525 23.8803 33.7767 27.2063 31.9798L26.2557 30.2202C22.6218 32.1833 19.7487 34.9075 17.6544 38.384L19.3676 39.416ZM27.2021 31.9821C30.564 30.1865 34.3398 29.28 38.551 29.28V27.28C34.0422 27.28 29.938 28.2535 26.2599 30.2179L27.2021 31.9821ZM38.551 29.28C42.7624 29.28 46.5162 30.1865 49.8357 31.9798L50.7863 30.2202C47.1458 28.2535 43.0596 27.28 38.551 27.28V29.28ZM49.8357 31.9798C53.1618 33.7767 55.7687 36.2525 57.6744 39.416L59.3876 38.384C57.2934 34.9075 54.4203 32.1833 50.7863 30.2202L49.8357 31.9798ZM57.6772 39.4206C59.5746 42.5324 60.531 46.0498 60.531 50H62.531C62.531 45.7102 61.4874 41.8276 59.3848 38.3794L57.6772 39.4206ZM60.531 50C60.531 53.9501 59.5746 57.4897 57.6744 60.644L59.3876 61.676C61.4874 58.1903 62.531 54.2899 62.531 50H60.531ZM57.6772 60.6394C55.7722 63.7637 53.1648 66.2217 49.8357 68.0202L50.7863 69.7798C54.4172 67.8183 57.2899 65.1163 59.3848 61.6806L57.6772 60.6394ZM49.8357 68.0202C46.5162 69.8135 42.7624 70.72 38.551 70.72V72.72C43.0596 72.72 47.1458 71.7465 50.7863 69.7798L49.8357 68.0202ZM38.551 64.44C41.1877 64.44 43.5982 63.8429 45.7596 62.6325L44.7824 60.8875C42.9438 61.9171 40.8743 62.44 38.551 62.44V64.44ZM45.7727 62.625C47.9314 61.373 49.6205 59.6398 50.8276 57.4413L49.0744 56.4787C48.0415 58.3602 46.6106 59.827 44.7693 60.895L45.7727 62.625ZM50.8203 57.4543C52.075 55.2478 52.691 52.7542 52.691 50H50.691C50.691 52.4458 50.1471 54.5922 49.0817 56.4657L50.8203 57.4543ZM52.691 50C52.691 47.2458 52.075 44.7522 50.8203 42.5457L49.0817 43.5343C50.1471 45.4078 50.691 47.5542 50.691 50H52.691ZM50.8276 42.5587C49.6189 40.3572 47.9256 38.6405 45.7596 37.4275L44.7824 39.1725C46.6164 40.1995 48.0431 41.6428 49.0744 43.5213L50.8276 42.5587ZM45.7727 37.435C43.6092 36.1801 41.194 35.56 38.551 35.56V37.56C40.8681 37.56 42.9328 38.0999 44.7693 39.165L45.7727 37.435ZM38.551 35.56C35.9081 35.56 33.4928 36.1801 31.3293 37.435L32.3327 39.165C34.1692 38.0999 36.234 37.56 38.551 37.56V35.56ZM31.3424 37.4275C29.1795 38.6387 27.4695 40.3513 26.2217 42.5457L27.9603 43.5343C29.0325 41.6487 30.4825 40.2013 32.3196 39.1725L31.3424 37.4275ZM26.2144 42.5587C25.0043 44.7629 24.411 47.2518 24.411 50H26.411C26.411 47.5482 26.9377 45.3971 27.9676 43.5213L26.2144 42.5587ZM24.411 50C24.411 52.7482 25.0043 55.2371 26.2144 57.4413L27.9676 56.4787C26.9377 54.6029 26.411 52.4518 26.411 50H24.411ZM26.2217 57.4543C27.4679 59.6458 29.1737 61.3748 31.3293 62.625L32.3327 60.895C30.4883 59.8252 29.0341 58.3542 27.9603 56.4657L26.2217 57.4543ZM31.3424 62.6325C33.5038 63.8429 35.9143 64.44 38.551 64.44V62.44C36.2277 62.44 34.1582 61.9171 32.3196 60.8875L31.3424 62.6325ZM81.7529 29H82.7529V28H81.7529V29ZM81.7529 71V72H82.7529V71H81.7529ZM72.0329 71H71.0329V72H72.0329V71ZM72.0329 36.8H73.0329V35.8H72.0329V36.8ZM63.6329 36.8H62.6329V37.8H63.6329V36.8ZM63.6329 29V28H62.6329V29H63.6329ZM80.7529 29V71H82.7529V29H80.7529ZM81.7529 70H72.0329V72H81.7529V70ZM73.0329 71V36.8H71.0329V71H73.0329ZM72.0329 35.8H63.6329V37.8H72.0329V35.8ZM64.6329 36.8V29H62.6329V36.8H64.6329ZM63.6329 30H81.7529V28H63.6329V30Z" fill="url(#paint0_linear_10_65)"/>
<defs>
<linearGradient id="paint0_linear_10_65" x1="13" y1="13" x2="90.4602" y2="16.8776" gradientUnits="userSpaceOnUse">
<stop stop-color="#FF9A22"/>
<stop offset="1" stop-color="#FFA943"/>
</linearGradient>
</defs>
</svg>
