<svg width="100" height="100" viewBox="0 0 100 100" fill="none" xmlns="http://www.w3.org/2000/svg">
<path d="M17.5025 68.9L17.0272 69.7798L17.0314 69.7821L17.5025 68.9ZM9.2825 61.16L8.42137 61.6684L8.42499 61.6745L8.4287 61.6806L9.2825 61.16ZM9.2825 38.9L8.42591 38.384L8.42409 38.387L9.2825 38.9ZM17.5025 31.1L17.0314 30.2179L17.0272 30.2202L17.5025 31.1ZM49.3025 38.9L48.4459 39.416L48.4487 39.4206L49.3025 38.9ZM49.3025 61.16L50.1563 61.6806L50.1591 61.676L49.3025 61.16ZM41.0825 68.9L41.5578 69.7798L41.0825 68.9ZM36.0425 61.76L36.5311 62.6325L36.5377 62.6288L36.5442 62.625L36.0425 61.76ZM40.7225 56.96L39.8532 56.4657L39.8495 56.4722L39.8459 56.4787L40.7225 56.96ZM40.7225 43.04L39.8459 43.5213L39.8495 43.5278L39.8532 43.5343L40.7225 43.04ZM36.0425 38.3L35.5408 39.165L35.5473 39.1688L35.5539 39.1725L36.0425 38.3ZM22.6025 38.3L23.0911 39.1725L23.0977 39.1688L23.1042 39.165L22.6025 38.3ZM17.8625 43.04L16.9932 42.5457L16.9895 42.5522L16.9859 42.5587L17.8625 43.04ZM17.8625 56.96L16.9859 57.4413L16.9895 57.4478L16.9932 57.4543L17.8625 56.96ZM22.6025 61.76L22.1008 62.625L22.1073 62.6288L22.1139 62.6325L22.6025 61.76ZM29.3225 70.72C25.1113 70.72 21.3355 69.8135 17.9736 68.0179L17.0314 69.7821C20.7095 71.7465 24.8137 72.72 29.3225 72.72V70.72ZM17.9778 68.0202C14.6487 66.2217 12.0413 63.7637 10.1363 60.6394L8.4287 61.6806C10.5237 65.1163 13.3963 67.8183 17.0272 69.7798L17.9778 68.0202ZM10.1436 60.6516C8.28081 57.4962 7.3425 53.9539 7.3425 50H5.3425C5.3425 54.2861 6.36419 58.1838 8.42137 61.6684L10.1436 60.6516ZM7.3425 50C7.3425 46.046 8.28081 42.5258 10.1409 39.413L8.42409 38.387C6.36419 41.8342 5.3425 45.714 5.3425 50H7.3425ZM10.1391 39.416C12.0448 36.2525 14.6518 33.7767 17.9778 31.9798L17.0272 30.2202C13.3932 32.1833 10.5202 34.9075 8.42592 38.384L10.1391 39.416ZM17.9736 31.9821C21.3355 30.1865 25.1113 29.28 29.3225 29.28V27.28C24.8137 27.28 20.7095 28.2535 17.0314 30.2179L17.9736 31.9821ZM29.3225 29.28C33.5339 29.28 37.2877 30.1865 40.6072 31.9798L41.5578 30.2202C37.9173 28.2535 33.8311 27.28 29.3225 27.28V29.28ZM40.6072 31.9798C43.9333 33.7767 46.5402 36.2525 48.4459 39.416L50.1591 38.384C48.0648 34.9075 45.1918 32.1833 41.5578 30.2202L40.6072 31.9798ZM48.4487 39.4206C50.3461 42.5324 51.3025 46.0498 51.3025 50H53.3025C53.3025 45.7102 52.2589 41.8276 50.1563 38.3794L48.4487 39.4206ZM51.3025 50C51.3025 53.9501 50.3461 57.4897 48.4459 60.644L50.1591 61.676C52.2589 58.1903 53.3025 54.2899 53.3025 50H51.3025ZM48.4487 60.6394C46.5437 63.7637 43.9363 66.2217 40.6072 68.0202L41.5578 69.7798C45.1887 67.8183 48.0613 65.1163 50.1563 61.6806L48.4487 60.6394ZM40.6072 68.0202C37.2877 69.8135 33.5339 70.72 29.3225 70.72V72.72C33.8311 72.72 37.9173 71.7465 41.5578 69.7798L40.6072 68.0202ZM29.3225 64.44C31.9592 64.44 34.3697 63.8429 36.5311 62.6325L35.5539 60.8875C33.7153 61.9171 31.6458 62.44 29.3225 62.44V64.44ZM36.5442 62.625C38.7029 61.373 40.392 59.6398 41.5991 57.4413L39.8459 56.4787C38.813 58.3602 37.3821 59.827 35.5408 60.895L36.5442 62.625ZM41.5918 57.4543C42.8465 55.2478 43.4625 52.7542 43.4625 50H41.4625C41.4625 52.4458 40.9186 54.5922 39.8532 56.4657L41.5918 57.4543ZM43.4625 50C43.4625 47.2458 42.8465 44.7522 41.5918 42.5457L39.8532 43.5343C40.9186 45.4078 41.4625 47.5542 41.4625 50H43.4625ZM41.5991 42.5587C40.3904 40.3572 38.6971 38.6405 36.5311 37.4275L35.5539 39.1725C37.3879 40.1995 38.8146 41.6428 39.8459 43.5213L41.5991 42.5587ZM36.5442 37.435C34.3807 36.1801 31.9655 35.56 29.3225 35.56V37.56C31.6395 37.56 33.7043 38.0999 35.5408 39.165L36.5442 37.435ZM29.3225 35.56C26.6795 35.56 24.2643 36.1801 22.1008 37.435L23.1042 39.165C24.9407 38.0999 27.0055 37.56 29.3225 37.56V35.56ZM22.1139 37.4275C19.951 38.6387 18.241 40.3513 16.9932 42.5457L18.7318 43.5343C19.804 41.6487 21.254 40.2013 23.0911 39.1725L22.1139 37.4275ZM16.9859 42.5587C15.7758 44.7629 15.1825 47.2518 15.1825 50H17.1825C17.1825 47.5482 17.7092 45.3971 18.7391 43.5213L16.9859 42.5587ZM15.1825 50C15.1825 52.7482 15.7758 55.2371 16.9859 57.4413L18.7391 56.4787C17.7092 54.6029 17.1825 52.4518 17.1825 50H15.1825ZM16.9932 57.4543C18.2394 59.6458 19.9452 61.3748 22.1008 62.625L23.1042 60.895C21.2598 59.8252 19.8056 58.3542 18.7318 56.4657L16.9932 57.4543ZM22.1139 62.6325C24.2753 63.8429 26.6858 64.44 29.3225 64.44V62.44C26.9992 62.44 24.9297 61.9171 23.0911 60.8875L22.1139 62.6325ZM95.3703 62.18V63.18H96.3703V62.18H95.3703ZM88.5303 62.18V61.18H87.5303V62.18H88.5303ZM88.5303 71V72H89.5303V71H88.5303ZM79.0503 71H78.0503V72H79.0503V71ZM79.0503 62.18H80.0503V61.18H79.0503V62.18ZM56.4303 62.18H55.4303V63.18H56.4303V62.18ZM56.4303 55.64L55.6277 55.0435L55.4303 55.3091V55.64H56.4303ZM76.2303 29V28H75.7276L75.4277 28.4035L76.2303 29ZM86.4303 29L87.2392 29.5879L88.3934 28H86.4303V29ZM68.0703 54.26L67.2614 53.6721L66.1072 55.26H68.0703V54.26ZM79.3503 54.26V55.26H80.3503V54.26H79.3503ZM79.3503 46.4V45.4H78.3503V46.4H79.3503ZM88.5303 46.4H89.5303V45.4H88.5303V46.4ZM88.5303 54.26H87.5303V55.26H88.5303V54.26ZM95.3703 54.26H96.3703V53.26H95.3703V54.26ZM95.3703 61.18H88.5303V63.18H95.3703V61.18ZM87.5303 62.18V71H89.5303V62.18H87.5303ZM88.5303 70H79.0503V72H88.5303V70ZM80.0503 71V62.18H78.0503V71H80.0503ZM79.0503 61.18H56.4303V63.18H79.0503V61.18ZM57.4303 62.18V55.64H55.4303V62.18H57.4303ZM57.2329 56.2365L77.0329 29.5965L75.4277 28.4035L55.6277 55.0435L57.2329 56.2365ZM76.2303 30H86.4303V28H76.2303V30ZM85.6214 28.4121L67.2614 53.6721L68.8792 54.8479L87.2392 29.5879L85.6214 28.4121ZM68.0703 55.26H79.3503V53.26H68.0703V55.26ZM80.3503 54.26V46.4H78.3503V54.26H80.3503ZM79.3503 47.4H88.5303V45.4H79.3503V47.4ZM87.5303 46.4V54.26H89.5303V46.4H87.5303ZM88.5303 55.26H95.3703V53.26H88.5303V55.26ZM94.3703 54.26V62.18H96.3703V54.26H94.3703Z" fill="url(#paint0_linear_10_74)"/>
<defs>
<linearGradient id="paint0_linear_10_74" x1="4" y1="13" x2="100.171" y2="18.9853" gradientUnits="userSpaceOnUse">
<stop stop-color="#FF9A22"/>
<stop offset="1" stop-color="#FFA943"/>
</linearGradient>
</defs>
</svg>
