<svg width="162" height="107" viewBox="0 0 162 107" fill="none" xmlns="http://www.w3.org/2000/svg">
<path d="M22.04 81L20.7959 77.8213H16.79L15.5596 81H14.3838L18.335 70.9648H19.3125L23.2432 81H22.04ZM20.4336 76.7754L19.2715 73.6787C19.1211 73.2868 18.9661 72.806 18.8066 72.2363C18.7064 72.6738 18.5628 73.1546 18.376 73.6787L17.2002 76.7754H20.4336ZM27.4404 81.1367C26.3558 81.1367 25.515 80.804 24.918 80.1387C24.3255 79.4688 24.0293 78.5231 24.0293 77.3018C24.0293 76.0485 24.3301 75.0801 24.9316 74.3965C25.5378 73.7129 26.3991 73.3711 27.5156 73.3711C27.8757 73.3711 28.2357 73.4098 28.5957 73.4873C28.9557 73.5648 29.2383 73.6559 29.4434 73.7607L29.0947 74.7246C28.8441 74.6243 28.5706 74.5423 28.2744 74.4785C27.9782 74.4102 27.7161 74.376 27.4883 74.376C25.9661 74.376 25.2051 75.3467 25.2051 77.2881C25.2051 78.2087 25.3896 78.915 25.7588 79.4072C26.1325 79.8994 26.6839 80.1455 27.4131 80.1455C28.0374 80.1455 28.6777 80.0111 29.334 79.7422V80.7471C28.8327 81.0068 28.2015 81.1367 27.4404 81.1367ZM39.1436 77.2471C39.1436 78.3818 38.82 79.2865 38.1729 79.9609C37.5303 80.6309 36.6302 81.0137 35.4727 81.1094V84.3633H34.3516V81.1094C33.2214 81.0228 32.3281 80.6354 31.6719 79.9473C31.0156 79.2591 30.6875 78.359 30.6875 77.2471C30.6875 76.1123 31.0133 75.21 31.665 74.54C32.3213 73.8701 33.2305 73.4896 34.3926 73.3984V70.3633H35.4727V73.3984C36.6165 73.5033 37.5143 73.8975 38.166 74.5811C38.8177 75.2646 39.1436 76.1533 39.1436 77.2471ZM31.877 77.2471C31.877 78.1221 32.0775 78.8079 32.4785 79.3047C32.8796 79.8014 33.5176 80.0908 34.3926 80.1729V74.3486C33.5495 74.4261 32.9183 74.7018 32.499 75.1758C32.0843 75.6452 31.877 76.3356 31.877 77.2471ZM37.9678 77.2471C37.9678 75.5016 37.1361 74.54 35.4727 74.3623V80.1729C36.3385 80.0863 36.9697 79.7946 37.3662 79.2979C37.7673 78.8011 37.9678 78.1175 37.9678 77.2471ZM45.7334 81L45.5078 79.9336H45.4531C45.0794 80.403 44.7057 80.722 44.332 80.8906C43.9629 81.0547 43.5003 81.1367 42.9443 81.1367C42.2015 81.1367 41.6182 80.9453 41.1943 80.5625C40.7751 80.1797 40.5654 79.6351 40.5654 78.9287C40.5654 77.4157 41.7754 76.6227 44.1953 76.5498L45.4668 76.5088V76.0439C45.4668 75.4561 45.3392 75.0231 45.084 74.7451C44.8333 74.4626 44.43 74.3213 43.874 74.3213C43.2497 74.3213 42.5433 74.5127 41.7549 74.8955L41.4062 74.0273C41.7754 73.8268 42.1787 73.6696 42.6162 73.5557C43.0583 73.4417 43.5003 73.3848 43.9424 73.3848C44.8356 73.3848 45.4964 73.583 45.9248 73.9795C46.3577 74.376 46.5742 75.0117 46.5742 75.8867V81H45.7334ZM43.1699 80.2002C43.8763 80.2002 44.43 80.0065 44.8311 79.6191C45.2367 79.2318 45.4395 78.6895 45.4395 77.9922V77.3154L44.3047 77.3633C43.4023 77.3952 42.7507 77.5365 42.3496 77.7871C41.9531 78.0332 41.7549 78.4183 41.7549 78.9424C41.7549 79.3525 41.8779 79.6647 42.124 79.8789C42.3747 80.0931 42.7233 80.2002 43.1699 80.2002ZM54.5039 81H53.3555V74.4785H51.1064C50.9834 76.1009 50.8125 77.3883 50.5938 78.3408C50.375 79.2933 50.0902 79.9906 49.7393 80.4326C49.3929 80.8747 48.9508 81.0957 48.4131 81.0957C48.167 81.0957 47.971 81.0684 47.8252 81.0137V80.1729C47.9255 80.2002 48.0394 80.2139 48.167 80.2139C48.6911 80.2139 49.1081 79.6602 49.418 78.5527C49.7279 77.4453 49.9626 75.7637 50.1221 73.5078H54.5039V81ZM58.0518 76.6045H60.3623C62.2764 76.6045 63.2334 77.3086 63.2334 78.7168C63.2334 79.4551 62.9827 80.0202 62.4814 80.4121C61.9847 80.804 61.2555 81 60.2939 81H56.917V73.5078H58.0518V76.6045ZM58.0518 77.582V80.0498H60.2393C60.8408 80.0498 61.3011 79.945 61.6201 79.7354C61.9391 79.5257 62.0986 79.209 62.0986 78.7852C62.0986 78.3704 61.9505 78.0674 61.6543 77.876C61.3626 77.68 60.8796 77.582 60.2051 77.582H58.0518ZM70.2539 74.4785H67.8203V81H66.6855V74.4785H64.2793V73.5078H70.2539V74.4785ZM78.2041 77.2471C78.2041 78.4684 77.8965 79.4232 77.2812 80.1113C76.666 80.7949 75.8161 81.1367 74.7314 81.1367C74.0615 81.1367 73.4668 80.9795 72.9473 80.665C72.4277 80.3506 72.0267 79.8994 71.7441 79.3115C71.4616 78.7236 71.3203 78.0355 71.3203 77.2471C71.3203 76.0257 71.6257 75.0755 72.2363 74.3965C72.847 73.7129 73.6947 73.3711 74.7793 73.3711C75.8275 73.3711 76.6592 73.7197 77.2744 74.417C77.8942 75.1143 78.2041 76.0576 78.2041 77.2471ZM72.4961 77.2471C72.4961 78.2041 72.6875 78.9333 73.0703 79.4346C73.4531 79.9359 74.016 80.1865 74.7588 80.1865C75.5016 80.1865 76.0645 79.9382 76.4473 79.4414C76.8346 78.9401 77.0283 78.2087 77.0283 77.2471C77.0283 76.2946 76.8346 75.5723 76.4473 75.0801C76.0645 74.5833 75.4971 74.335 74.7451 74.335C74.0023 74.335 73.4417 74.5788 73.0635 75.0664C72.6852 75.554 72.4961 76.2809 72.4961 77.2471ZM79.8105 76.5088C79.8105 74.8682 80.0521 73.5898 80.5352 72.6738C81.0182 71.7533 81.7839 71.179 82.832 70.9512C84.1354 70.6732 85.2839 70.4476 86.2773 70.2744L86.4893 71.2725C84.9079 71.5368 83.7777 71.7464 83.0986 71.9014C82.4378 72.0518 81.9411 72.4072 81.6084 72.9678C81.2803 73.5283 81.1003 74.2917 81.0684 75.2578H81.1504C81.4329 74.875 81.7975 74.5742 82.2441 74.3555C82.6908 74.1367 83.1579 74.0273 83.6455 74.0273C84.5661 74.0273 85.2839 74.3258 85.7988 74.9229C86.3138 75.5199 86.5713 76.347 86.5713 77.4043C86.5713 78.5755 86.2728 79.4915 85.6758 80.1523C85.0788 80.8086 84.2471 81.1367 83.1807 81.1367C82.1279 81.1367 81.3031 80.7334 80.7061 79.9268C80.109 79.1201 79.8105 77.9808 79.8105 76.5088ZM83.2832 80.1865C84.6732 80.1865 85.3682 79.3001 85.3682 77.5273C85.3682 75.8366 84.737 74.9912 83.4746 74.9912C83.1283 74.9912 82.7933 75.0641 82.4697 75.21C82.1507 75.3512 81.8568 75.5404 81.5879 75.7773C81.3236 76.0143 81.1185 76.2581 80.9727 76.5088C80.9727 77.7074 81.1618 78.6211 81.54 79.25C81.9183 79.8743 82.4993 80.1865 83.2832 80.1865ZM91.7188 81.1367C90.6113 81.1367 89.7363 80.7995 89.0938 80.125C88.4557 79.4505 88.1367 78.514 88.1367 77.3154C88.1367 76.1077 88.4329 75.1484 89.0254 74.4375C89.6224 73.7266 90.4222 73.3711 91.4248 73.3711C92.3636 73.3711 93.1064 73.681 93.6533 74.3008C94.2002 74.916 94.4736 75.7295 94.4736 76.7412V77.459H89.3125C89.3353 78.3385 89.5563 79.0062 89.9756 79.4619C90.3994 79.9176 90.9941 80.1455 91.7598 80.1455C92.5664 80.1455 93.3639 79.9769 94.1523 79.6396V80.6514C93.7513 80.8245 93.3708 80.9476 93.0107 81.0205C92.6553 81.098 92.2246 81.1367 91.7188 81.1367ZM91.4111 74.3213C90.8096 74.3213 90.3288 74.5173 89.9688 74.9092C89.6133 75.3011 89.4036 75.8434 89.3398 76.5361H93.2568C93.2568 75.8206 93.0973 75.2738 92.7783 74.8955C92.4593 74.5127 92.0036 74.3213 91.4111 74.3213ZM101.467 74.4785H99.0332V81H97.8984V74.4785H95.4922V73.5078H101.467V74.4785ZM109.417 77.2471C109.417 78.4684 109.109 79.4232 108.494 80.1113C107.879 80.7949 107.029 81.1367 105.944 81.1367C105.274 81.1367 104.68 80.9795 104.16 80.665C103.641 80.3506 103.24 79.8994 102.957 79.3115C102.674 78.7236 102.533 78.0355 102.533 77.2471C102.533 76.0257 102.839 75.0755 103.449 74.3965C104.06 73.7129 104.908 73.3711 105.992 73.3711C107.04 73.3711 107.872 73.7197 108.487 74.417C109.107 75.1143 109.417 76.0576 109.417 77.2471ZM103.709 77.2471C103.709 78.2041 103.9 78.9333 104.283 79.4346C104.666 79.9359 105.229 80.1865 105.972 80.1865C106.715 80.1865 107.277 79.9382 107.66 79.4414C108.048 78.9401 108.241 78.2087 108.241 77.2471C108.241 76.2946 108.048 75.5723 107.66 75.0801C107.277 74.5833 106.71 74.335 105.958 74.335C105.215 74.335 104.655 74.5788 104.276 75.0664C103.898 75.554 103.709 76.2809 103.709 77.2471ZM112.548 73.5078V76.6455H116.745V73.5078H117.88V81H116.745V77.623H112.548V81H111.413V73.5078H112.548ZM121.421 73.5078V76.6455H125.618V73.5078H126.753V81H125.618V77.623H121.421V81H120.286V73.5078H121.421ZM130.294 76.6045H132.338C133.29 76.6045 133.994 76.7822 134.45 77.1377C134.91 77.4886 135.141 78.015 135.141 78.7168C135.141 79.4688 134.897 80.0384 134.409 80.4258C133.926 80.8086 133.213 81 132.27 81H129.159V73.5078H130.294V76.6045ZM137.533 81H136.398V73.5078H137.533V81ZM130.294 77.582V80.0498H132.215C133.418 80.0498 134.02 79.6283 134.02 78.7852C134.02 78.3659 133.881 78.0605 133.603 77.8691C133.325 77.6777 132.851 77.582 132.181 77.582H130.294ZM141.013 73.5078V78.2588L140.965 79.5029L140.944 79.8926L144.998 73.5078H146.413V81H145.354V76.4199L145.374 75.5176L145.408 74.6289L141.361 81H139.946V73.5078H141.013ZM143.152 72.5166C142.309 72.5166 141.694 72.3548 141.307 72.0312C140.919 71.7031 140.703 71.1654 140.657 70.418H141.724C141.765 70.8919 141.888 71.2223 142.093 71.4092C142.302 71.596 142.665 71.6895 143.18 71.6895C143.649 71.6895 143.995 71.5892 144.219 71.3887C144.447 71.1882 144.586 70.8646 144.636 70.418H145.709C145.654 71.138 145.424 71.6689 145.019 72.0107C144.613 72.348 143.991 72.5166 143.152 72.5166ZM64.1289 97.6182C65.5462 97.6182 66.2549 97.2262 66.2549 96.4424C66.2549 95.7041 65.6807 95.335 64.5322 95.335C64.1813 95.335 63.8623 95.3669 63.5752 95.4307C63.2881 95.4945 62.9121 95.6221 62.4473 95.8135L62.0439 94.8906C62.8187 94.5443 63.6641 94.3711 64.5801 94.3711C65.4414 94.3711 66.1204 94.5488 66.6172 94.9043C67.1139 95.2552 67.3623 95.736 67.3623 96.3467C67.3623 97.1852 66.8952 97.7344 65.9609 97.9941V98.0488C66.5352 98.2174 66.9544 98.459 67.2188 98.7734C67.4831 99.0833 67.6152 99.473 67.6152 99.9424C67.6152 100.635 67.335 101.175 66.7744 101.562C66.2184 101.945 65.4482 102.137 64.4639 102.137C63.3838 102.137 62.5498 101.975 61.9619 101.651V100.612C62.7959 101.004 63.639 101.2 64.4912 101.2C65.1475 101.2 65.6419 101.089 65.9746 100.865C66.3118 100.637 66.4805 100.312 66.4805 99.8877C66.4805 99.0173 65.7718 98.582 64.3545 98.582H63.3154V97.6182H64.1289ZM74.0752 102L73.8496 100.934H73.7949C73.4212 101.403 73.0475 101.722 72.6738 101.891C72.3047 102.055 71.8421 102.137 71.2861 102.137C70.5433 102.137 69.96 101.945 69.5361 101.562C69.1169 101.18 68.9072 100.635 68.9072 99.9287C68.9072 98.4157 70.1172 97.6227 72.5371 97.5498L73.8086 97.5088V97.0439C73.8086 96.4561 73.681 96.0231 73.4258 95.7451C73.1751 95.4626 72.7718 95.3213 72.2158 95.3213C71.5915 95.3213 70.8851 95.5127 70.0967 95.8955L69.748 95.0273C70.1172 94.8268 70.5205 94.6696 70.958 94.5557C71.4001 94.4417 71.8421 94.3848 72.2842 94.3848C73.1774 94.3848 73.8382 94.583 74.2666 94.9795C74.6995 95.376 74.916 96.0117 74.916 96.8867V102H74.0752ZM71.5117 101.2C72.2181 101.2 72.7718 101.007 73.1729 100.619C73.5785 100.232 73.7812 99.6895 73.7812 98.9922V98.3154L72.6465 98.3633C71.7441 98.3952 71.0924 98.5365 70.6914 98.7871C70.2949 99.0332 70.0967 99.4183 70.0967 99.9424C70.0967 100.353 70.2197 100.665 70.4658 100.879C70.7165 101.093 71.0651 101.2 71.5117 101.2ZM83.3379 96.3877C83.3379 96.8753 83.1966 97.2467 82.9141 97.502C82.6361 97.7526 82.2441 97.9212 81.7383 98.0078V98.0693C82.3763 98.1559 82.8411 98.3428 83.1328 98.6299C83.429 98.917 83.5771 99.3135 83.5771 99.8193C83.5771 100.517 83.3197 101.054 82.8047 101.433C82.2943 101.811 81.5469 102 80.5625 102H77.2607V94.5078H80.5488C82.4082 94.5078 83.3379 95.1344 83.3379 96.3877ZM82.4424 99.7441C82.4424 99.3385 82.2874 99.0446 81.9775 98.8623C81.6722 98.6755 81.1641 98.582 80.4531 98.582H78.3955V101.05H80.4805C81.7884 101.05 82.4424 100.615 82.4424 99.7441ZM82.2305 96.4971C82.2305 96.1325 82.0892 95.875 81.8066 95.7246C81.5286 95.5697 81.1048 95.4922 80.5352 95.4922H78.3955V97.6045H80.3164C81.0182 97.6045 81.5127 97.5179 81.7998 97.3447C82.0869 97.1715 82.2305 96.889 82.2305 96.4971ZM91.6982 98.2471C91.6982 99.4684 91.3906 100.423 90.7754 101.111C90.1602 101.795 89.3102 102.137 88.2256 102.137C87.5557 102.137 86.9609 101.979 86.4414 101.665C85.9219 101.351 85.5208 100.899 85.2383 100.312C84.9557 99.7236 84.8145 99.0355 84.8145 98.2471C84.8145 97.0257 85.1198 96.0755 85.7305 95.3965C86.3411 94.7129 87.1888 94.3711 88.2734 94.3711C89.3216 94.3711 90.1533 94.7197 90.7686 95.417C91.3883 96.1143 91.6982 97.0576 91.6982 98.2471ZM85.9902 98.2471C85.9902 99.2041 86.1816 99.9333 86.5645 100.435C86.9473 100.936 87.5101 101.187 88.2529 101.187C88.9958 101.187 89.5586 100.938 89.9414 100.441C90.3288 99.9401 90.5225 99.2087 90.5225 98.2471C90.5225 97.2946 90.3288 96.5723 89.9414 96.0801C89.5586 95.5833 88.9912 95.335 88.2393 95.335C87.4964 95.335 86.9359 95.5788 86.5576 96.0664C86.1794 96.554 85.9902 97.2809 85.9902 98.2471ZM100.202 104.591H99.1016V102H93.8652V104.591H92.7715V101.022H93.3594C93.9701 100.193 94.4486 99.2201 94.7949 98.1035C95.1413 96.987 95.3213 95.7884 95.335 94.5078H99.1289V101.022H100.202V104.591ZM98.0352 101.022V95.4033H96.3535C96.2943 96.415 96.0983 97.4404 95.7656 98.4795C95.4375 99.514 95.0273 100.362 94.5352 101.022H98.0352Z" fill="white"/>
<path d="M29.07 16.9L27.45 25.135C27.15 26.665 26.61 27.895 25.83 28.825C25.05 29.725 23.835 30.385 22.185 30.805C20.535 31.195 18.255 31.39 15.345 31.39V16.9H17.505V29.23C19.965 29.23 21.795 28.9 22.995 28.24C24.225 27.55 25.005 26.365 25.335 24.685L26.865 16.9H29.07ZM25.605 33.37C27.315 32.41 28.56 31.375 29.34 30.265C30.12 29.125 30.66 27.775 30.96 26.215L32.895 16.9H35.145L33.075 26.665C32.385 29.965 30.825 32.455 28.395 34.135L37.845 52H35.415L25.605 33.37ZM9.495 16.9H11.655V52H9.495V16.9ZM21.06 36.61C20.91 36.67 20.595 36.73 20.115 36.79C19.635 36.82 19.14 36.85 18.63 36.88C18.15 36.88 17.775 36.88 17.505 36.88V52H15.345V34.72C16.725 34.72 17.97 34.69 19.08 34.63C20.19 34.57 21.255 34.375 22.275 34.045L30.87 52H28.485L21.06 36.61Z" fill="#FEC234"/>
<path d="M45.945 46.06C46.965 47.59 48.165 48.7 49.545 49.39C50.955 50.08 52.455 50.425 54.045 50.425C56.925 50.425 59.07 49.465 60.48 47.545C61.92 45.595 62.64 42.835 62.64 39.265C62.64 35.605 61.905 32.83 60.435 30.94C58.965 29.05 56.895 28.105 54.225 28.105C52.485 28.105 50.865 28.495 49.365 29.275C47.865 30.055 46.545 31.42 45.405 33.37V26.485H47.565V29.05C48.015 28.27 48.78 27.565 49.86 26.935C50.94 26.275 52.395 25.945 54.225 25.945C57.435 25.945 60 27.055 61.92 29.275C63.84 31.495 64.8 34.825 64.8 39.265C64.8 43.615 63.87 46.915 62.01 49.165C60.18 51.415 57.525 52.54 54.045 52.54C52.575 52.54 51.315 52.315 50.265 51.865C49.245 51.385 48.525 50.815 48.105 50.155V60.19H45.945V46.06ZM40.5 26.485H42.66V60.235L40.5 60.19V26.485ZM45.945 37.015C45.945 34.825 46.545 33.1 47.745 31.84C48.975 30.55 50.55 29.905 52.47 29.905C53.58 29.905 54.645 30.205 55.665 30.805C56.685 31.405 57.525 32.395 58.185 33.775C58.845 35.125 59.175 36.955 59.175 39.265C59.175 41.515 58.875 43.3 58.275 44.62C57.705 45.94 56.91 46.885 55.89 47.455C54.87 48.025 53.685 48.31 52.335 48.31C51.045 48.31 49.875 47.965 48.825 47.275C47.775 46.585 46.815 45.625 45.945 44.395V37.015ZM48.105 43.72C48.555 44.38 49.14 44.95 49.86 45.43C50.58 45.91 51.405 46.15 52.335 46.15C53.805 46.15 54.945 45.625 55.755 44.575C56.595 43.495 57.015 41.725 57.015 39.265C57.015 36.715 56.565 34.885 55.665 33.775C54.765 32.635 53.7 32.065 52.47 32.065C51.18 32.065 50.13 32.515 49.32 33.415C48.51 34.315 48.105 35.515 48.105 37.015V43.72ZM81 52.54C78.18 52.54 75.825 51.955 73.935 50.785C72.045 49.615 70.62 48.025 69.66 46.015C68.73 43.975 68.265 41.71 68.265 39.22C68.265 36.7 68.73 34.435 69.66 32.425C70.62 30.415 72.045 28.825 73.935 27.655C75.825 26.485 78.18 25.9 81 25.9C83.85 25.9 86.205 26.485 88.065 27.655C89.955 28.825 91.365 30.415 92.295 32.425C93.225 34.435 93.69 36.7 93.69 39.22C93.69 41.71 93.225 43.975 92.295 46.015C91.365 48.025 89.955 49.615 88.065 50.785C86.205 51.955 83.85 52.54 81 52.54ZM81 50.425C83.37 50.425 85.335 49.93 86.895 48.94C88.455 47.92 89.61 46.57 90.36 44.89C91.14 43.18 91.53 41.29 91.53 39.22C91.53 37.12 91.14 35.23 90.36 33.55C89.61 31.87 88.455 30.535 86.895 29.545C85.335 28.555 83.37 28.06 81 28.06C78.66 28.06 76.695 28.555 75.105 29.545C73.545 30.535 72.375 31.87 71.595 33.55C70.815 35.23 70.425 37.12 70.425 39.22C70.425 41.29 70.815 43.18 71.595 44.89C72.375 46.57 73.545 47.92 75.105 48.94C76.695 49.93 78.66 50.425 81 50.425ZM81 48.13C79.71 48.13 78.525 47.83 77.445 47.23C76.395 46.63 75.555 45.685 74.925 44.395C74.325 43.075 74.025 41.35 74.025 39.22C74.025 37.09 74.34 35.395 74.97 34.135C75.6 32.845 76.44 31.915 77.49 31.345C78.54 30.745 79.71 30.445 81 30.445C83.01 30.445 84.66 31.12 85.95 32.47C87.27 33.79 87.93 36.04 87.93 39.22C87.93 42.43 87.27 44.725 85.95 46.105C84.66 47.455 83.01 48.13 81 48.13ZM81 45.97C82.47 45.97 83.625 45.445 84.465 44.395C85.335 43.315 85.77 41.59 85.77 39.22C85.77 36.91 85.335 35.23 84.465 34.18C83.625 33.13 82.47 32.605 81 32.605C79.59 32.605 78.435 33.13 77.535 34.18C76.635 35.23 76.185 36.91 76.185 39.22C76.185 41.56 76.62 43.27 77.49 44.35C78.39 45.43 79.56 45.97 81 45.97ZM121.86 44.395C121.2 46.945 119.97 48.94 118.17 50.38C116.37 51.82 113.955 52.54 110.925 52.54C108.525 52.54 106.335 52.09 104.355 51.19C102.405 50.26 100.86 48.805 99.72 46.825C98.58 44.845 98.01 42.295 98.01 39.175C98.01 36.445 98.535 34.09 99.585 32.11C100.665 30.13 102.165 28.6 104.085 27.52C106.035 26.44 108.33 25.9 110.97 25.9C112.86 25.9 114.555 26.23 116.055 26.89C117.555 27.52 118.8 28.39 119.79 29.5C120.78 30.58 121.455 31.825 121.815 33.235L119.925 33.955C119.175 31.945 118.02 30.46 116.46 29.5C114.93 28.54 113.1 28.06 110.97 28.06C108.78 28.06 106.875 28.525 105.255 29.455C103.635 30.355 102.375 31.63 101.475 33.28C100.605 34.93 100.17 36.895 100.17 39.175C100.17 41.785 100.635 43.93 101.565 45.61C102.525 47.26 103.815 48.475 105.435 49.255C107.085 50.035 108.915 50.425 110.925 50.425C113.565 50.425 115.545 49.825 116.865 48.625C118.215 47.395 119.22 45.775 119.88 43.765L121.86 44.395ZM117.72 43.045C117.27 44.665 116.505 45.925 115.425 46.825C114.345 47.725 112.965 48.175 111.285 48.175C108.915 48.175 107.1 47.455 105.84 46.015C104.58 44.545 103.95 42.265 103.95 39.175C103.95 37.045 104.265 35.35 104.895 34.09C105.555 32.83 106.425 31.93 107.505 31.39C108.615 30.82 109.845 30.535 111.195 30.535C112.665 30.535 113.955 30.835 115.065 31.435C116.175 32.035 117.045 33.175 117.675 34.855L115.65 35.665C115.02 33.685 113.535 32.695 111.195 32.695C109.725 32.695 108.51 33.205 107.55 34.225C106.59 35.215 106.11 36.865 106.11 39.175C106.11 43.735 107.835 46.015 111.285 46.015C112.275 46.015 113.16 45.73 113.94 45.16C114.75 44.56 115.35 43.645 115.74 42.415L117.72 43.045ZM128.88 26.485H150.57V28.645H128.88V26.485ZM141.21 30.805H150.57V32.965H143.37V52H141.21V30.805ZM135.63 32.965H128.88V30.805H137.79V52H135.63V32.965Z" fill="white"/>
</svg>
