<svg width="100" height="100" viewBox="0 0 100 100" fill="none" xmlns="http://www.w3.org/2000/svg">
<path d="M20.813 68.9L20.3377 69.7798L20.3419 69.7821L20.813 68.9ZM12.593 61.16L11.7319 61.6684L11.7355 61.6745L11.7393 61.6806L12.593 61.16ZM12.593 38.9L11.7365 38.384L11.7346 38.387L12.593 38.9ZM20.813 31.1L20.3419 30.2179L20.3377 30.2202L20.813 31.1ZM52.613 38.9L51.7565 39.416L51.7593 39.4206L52.613 38.9ZM52.613 61.16L53.4669 61.6806L53.4696 61.676L52.613 61.16ZM44.393 68.9L44.8684 69.7798L44.393 68.9ZM39.353 61.76L39.8417 62.6325L39.8482 62.6288L39.8548 62.625L39.353 61.76ZM44.033 56.96L43.1638 56.4657L43.1601 56.4722L43.1565 56.4787L44.033 56.96ZM44.033 43.04L43.1565 43.5213L43.1601 43.5278L43.1638 43.5343L44.033 43.04ZM39.353 38.3L38.8513 39.165L38.8579 39.1688L38.8644 39.1725L39.353 38.3ZM25.913 38.3L26.4017 39.1725L26.4082 39.1688L26.4148 39.165L25.913 38.3ZM21.173 43.04L20.3038 42.5457L20.3001 42.5522L20.2965 42.5587L21.173 43.04ZM21.173 56.96L20.2965 57.4413L20.3001 57.4478L20.3038 57.4543L21.173 56.96ZM25.913 61.76L25.4113 62.625L25.4179 62.6288L25.4244 62.6325L25.913 61.76ZM32.633 70.72C28.4218 70.72 24.6461 69.8135 21.2842 68.0179L20.3419 69.7821C24.02 71.7465 28.1243 72.72 32.633 72.72V70.72ZM21.2884 68.0202C17.9593 66.2217 15.3519 63.7637 13.4468 60.6394L11.7393 61.6806C13.8342 65.1163 16.7068 67.8183 20.3377 69.7798L21.2884 68.0202ZM13.4542 60.6516C11.5914 57.4962 10.653 53.9539 10.653 50H8.65305C8.65305 54.2861 9.67474 58.1838 11.7319 61.6684L13.4542 60.6516ZM10.653 50C10.653 46.046 11.5914 42.5258 13.4515 39.413L11.7346 38.387C9.67474 41.8342 8.65305 45.714 8.65305 50H10.653ZM13.4496 39.416C15.3554 36.2525 17.9623 33.7767 21.2884 31.9798L20.3377 30.2202C16.7038 32.1833 13.8307 34.9075 11.7365 38.384L13.4496 39.416ZM21.2842 31.9821C24.6461 30.1865 28.4218 29.28 32.633 29.28V27.28C28.1243 27.28 24.02 28.2535 20.3419 30.2179L21.2842 31.9821ZM32.633 29.28C36.8444 29.28 40.5983 30.1865 43.9177 31.9798L44.8684 30.2202C41.2278 28.2535 37.1417 27.28 32.633 27.28V29.28ZM43.9177 31.9798C47.2438 33.7767 49.8507 36.2525 51.7565 39.416L53.4696 38.384C51.3754 34.9075 48.5023 32.1833 44.8684 30.2202L43.9177 31.9798ZM51.7593 39.4206C53.6567 42.5324 54.613 46.0498 54.613 50H56.613C56.613 45.7102 55.5694 41.8276 53.4668 38.3794L51.7593 39.4206ZM54.613 50C54.613 53.9501 53.6567 57.4897 51.7565 60.644L53.4696 61.676C55.5694 58.1903 56.613 54.2899 56.613 50H54.613ZM51.7593 60.6394C49.8542 63.7637 47.2468 66.2217 43.9177 68.0202L44.8684 69.7798C48.4993 67.8183 51.3719 65.1163 53.4668 61.6806L51.7593 60.6394ZM43.9177 68.0202C40.5983 69.8135 36.8444 70.72 32.633 70.72V72.72C37.1417 72.72 41.2278 71.7465 44.8684 69.7798L43.9177 68.0202ZM32.633 64.44C35.2697 64.44 37.6803 63.8429 39.8417 62.6325L38.8644 60.8875C37.0258 61.9171 34.9564 62.44 32.633 62.44V64.44ZM39.8548 62.625C42.0134 61.373 43.7026 59.6398 44.9096 57.4413L43.1565 56.4787C42.1235 58.3602 40.6927 59.827 38.8513 60.895L39.8548 62.625ZM44.9023 57.4543C46.157 55.2478 46.773 52.7542 46.773 50H44.773C44.773 52.4458 44.2291 54.5922 43.1638 56.4657L44.9023 57.4543ZM46.773 50C46.773 47.2458 46.157 44.7522 44.9023 42.5457L43.1638 43.5343C44.2291 45.4078 44.773 47.5542 44.773 50H46.773ZM44.9096 42.5587C43.7009 40.3572 42.0077 38.6405 39.8417 37.4275L38.8644 39.1725C40.6984 40.1995 42.1251 41.6428 43.1565 43.5213L44.9096 42.5587ZM39.8548 37.435C37.6913 36.1801 35.276 35.56 32.633 35.56V37.56C34.9501 37.56 37.0148 38.0999 38.8513 39.165L39.8548 37.435ZM32.633 35.56C29.9901 35.56 27.5748 36.1801 25.4113 37.435L26.4148 39.165C28.2513 38.0999 30.316 37.56 32.633 37.56V35.56ZM25.4244 37.4275C23.2615 38.6387 21.5516 40.3513 20.3038 42.5457L22.0423 43.5343C23.1145 41.6487 24.5646 40.2013 26.4017 39.1725L25.4244 37.4275ZM20.2965 42.5587C19.0864 44.7629 18.493 47.2518 18.493 50H20.493C20.493 47.5482 21.0197 45.3971 22.0496 43.5213L20.2965 42.5587ZM18.493 50C18.493 52.7482 19.0864 55.2371 20.2965 57.4413L22.0496 56.4787C21.0197 54.6029 20.493 52.4518 20.493 50H18.493ZM20.3038 57.4543C21.5499 59.6458 23.2557 61.3748 25.4113 62.625L26.4148 60.895C24.5704 59.8252 23.1162 58.3542 22.0423 56.4657L20.3038 57.4543ZM25.4244 62.6325C27.5858 63.8429 29.9964 64.44 32.633 64.44V62.44C30.3097 62.44 28.2403 61.9171 26.4017 60.8875L25.4244 62.6325ZM79.0791 46.1L78.3276 45.4403L77.1371 46.7966L78.9182 47.087L79.0791 46.1ZM87.5391 50.24L86.7985 50.912L86.8049 50.9189L87.5391 50.24ZM88.5591 64.94L89.4062 65.4715L89.4108 65.4641L88.5591 64.94ZM82.6791 69.86L82.254 68.9549L82.2487 68.9574L82.6791 69.86ZM64.3191 70.58L64.048 71.5425L64.056 71.5448L64.064 71.5469L64.3191 70.58ZM57.0591 67.22L56.1676 66.767L55.7795 67.5309L56.4748 68.0315L57.0591 67.22ZM60.8391 59.78L61.4391 58.98L60.4868 58.2658L59.9476 59.327L60.8391 59.78ZM66.3591 62.6L66.0484 63.5505L66.0592 63.554L66.0701 63.5573L66.3591 62.6ZM78.5991 62.18L79.1483 63.0157L79.1565 63.0103L79.1647 63.0047L78.5991 62.18ZM68.3991 53H67.3991V54H68.3991V53ZM68.3991 46.58L67.6497 45.9179L67.3991 46.2015V46.58H68.3991ZM77.0391 36.8L77.7886 37.4621L79.2569 35.8H77.0391V36.8ZM59.1591 36.8H58.1591V37.8H59.1591V36.8ZM59.1591 29V28H58.1591V29H59.1591ZM88.5591 29H89.5591V28H88.5591V29ZM88.5591 35.3L89.3107 35.9597L89.5591 35.6766V35.3H88.5591ZM78.9182 47.087C82.438 47.6608 85.0286 48.9614 86.7986 50.912L88.2797 49.568C86.1297 47.1986 83.0803 45.7392 79.2401 45.113L78.9182 47.087ZM86.8049 50.9189C88.5773 52.8359 89.4791 55.2258 89.4791 58.16H91.4791C91.4791 54.7742 90.421 51.8841 88.2734 49.5611L86.8049 50.9189ZM89.4791 58.16C89.4791 60.4148 88.8906 62.4934 87.7075 64.4159L89.4108 65.4641C90.7877 63.2266 91.4791 60.7852 91.4791 58.16H89.4791ZM87.7121 64.4085C86.5537 66.2547 84.7574 67.779 82.254 68.9549L83.1043 70.7651C85.8809 69.461 88.0046 67.7053 89.4062 65.4715L87.7121 64.4085ZM82.2487 68.9574C79.8189 70.1162 76.7757 70.72 73.0791 70.72V72.72C76.9826 72.72 80.3394 72.0838 83.1096 70.7626L82.2487 68.9574ZM73.0791 70.72C70.2058 70.72 67.3716 70.3513 64.5743 69.6131L64.064 71.5469C67.0267 72.3287 70.0325 72.72 73.0791 72.72V70.72ZM64.5903 69.6175C61.8411 68.843 59.532 67.7683 57.6434 66.4085L56.4748 68.0315C58.5862 69.5517 61.1172 70.717 64.048 71.5425L64.5903 69.6175ZM57.9507 67.673L61.7307 60.233L59.9476 59.327L56.1676 66.767L57.9507 67.673ZM60.2391 60.58C61.9345 61.8515 63.8742 62.8397 66.0484 63.5505L66.6699 61.6495C64.6841 61.0003 62.9438 60.1085 61.4391 58.98L60.2391 60.58ZM66.0701 63.5573C68.2832 64.2254 70.5406 64.56 72.8391 64.56V62.56C70.7377 62.56 68.675 62.2546 66.6481 61.6427L66.0701 63.5573ZM72.8391 64.56C75.3899 64.56 77.5266 64.0814 79.1483 63.0157L78.05 61.3443C76.8716 62.1186 75.1684 62.56 72.8391 62.56V64.56ZM79.1647 63.0047C80.8409 61.8553 81.6991 60.2045 81.6991 58.16H79.6991C79.6991 59.5555 79.1574 60.5847 78.0336 61.3553L79.1647 63.0047ZM81.6991 58.16C81.6991 56.1421 80.9056 54.5193 79.2829 53.454C77.7337 52.437 75.5367 52 72.8391 52V54C75.3815 54 77.1146 54.423 78.1853 55.126C79.1827 55.7807 79.6991 56.7379 79.6991 58.16H81.6991ZM72.8391 52H68.3991V54H72.8391V52ZM69.3991 53V46.58H67.3991V53H69.3991ZM69.1486 47.2421L77.7886 37.4621L76.2897 36.1379L67.6497 45.9179L69.1486 47.2421ZM77.0391 35.8H59.1591V37.8H77.0391V35.8ZM60.1591 36.8V29H58.1591V36.8H60.1591ZM59.1591 30H88.5591V28H59.1591V30ZM87.5591 29V35.3H89.5591V29H87.5591ZM87.8076 34.6403L78.3276 45.4403L79.8307 46.7597L89.3107 35.9597L87.8076 34.6403Z" fill="url(#paint0_linear_10_71)"/>
<defs>
<linearGradient id="paint0_linear_10_71" x1="7" y1="13" x2="96.9425" y2="18.2326" gradientUnits="userSpaceOnUse">
<stop stop-color="#FF9A22"/>
<stop offset="1" stop-color="#FFA943"/>
</linearGradient>
</defs>
</svg>
