<svg width="100" height="100" viewBox="0 0 100 100" fill="none" xmlns="http://www.w3.org/2000/svg">
<path d="M20.7838 68.9L20.3084 69.7798L20.3126 69.7821L20.7838 68.9ZM12.5638 61.16L11.7026 61.6684L11.7062 61.6745L11.71 61.6806L12.5638 61.16ZM12.5638 38.9L11.7072 38.384L11.7053 38.387L12.5638 38.9ZM20.7838 31.1L20.3126 30.2179L20.3084 30.2202L20.7838 31.1ZM52.5838 38.9L51.7272 39.416L51.73 39.4206L52.5838 38.9ZM52.5838 61.16L53.4376 61.6806L53.4403 61.676L52.5838 61.16ZM44.3638 68.9L44.8391 69.7798L44.3638 68.9ZM39.3238 61.76L39.8124 62.6325L39.8189 62.6288L39.8255 62.625L39.3238 61.76ZM44.0038 56.96L43.1345 56.4657L43.1308 56.4722L43.1272 56.4787L44.0038 56.96ZM44.0038 43.04L43.1272 43.5213L43.1308 43.5278L43.1345 43.5343L44.0038 43.04ZM39.3238 38.3L38.822 39.165L38.8286 39.1688L38.8351 39.1725L39.3238 38.3ZM25.8838 38.3L26.3724 39.1725L26.3789 39.1688L26.3855 39.165L25.8838 38.3ZM21.1438 43.04L20.2745 42.5457L20.2708 42.5522L20.2672 42.5587L21.1438 43.04ZM21.1438 56.96L20.2672 57.4413L20.2708 57.4478L20.2745 57.4543L21.1438 56.96ZM25.8838 61.76L25.382 62.625L25.3886 62.6288L25.3951 62.6325L25.8838 61.76ZM32.6038 70.72C28.3925 70.72 24.6168 69.8135 21.2549 68.0179L20.3126 69.7821C23.9907 71.7465 28.095 72.72 32.6038 72.72V70.72ZM21.2591 68.0202C17.93 66.2217 15.3226 63.7637 13.4175 60.6394L11.71 61.6806C13.8049 65.1163 16.6775 67.8183 20.3084 69.7798L21.2591 68.0202ZM13.4249 60.6516C11.5621 57.4962 10.6238 53.9539 10.6238 50H8.62375C8.62375 54.2861 9.64544 58.1838 11.7026 61.6684L13.4249 60.6516ZM10.6238 50C10.6238 46.046 11.5621 42.5258 13.4222 39.413L11.7053 38.387C9.64544 41.8342 8.62375 45.714 8.62375 50H10.6238ZM13.4203 39.416C15.3261 36.2525 17.933 33.7767 21.2591 31.9798L20.3084 30.2202C16.6745 32.1833 13.8014 34.9075 11.7072 38.384L13.4203 39.416ZM21.2549 31.9821C24.6168 30.1865 28.3925 29.28 32.6038 29.28V27.28C28.095 27.28 23.9907 28.2535 20.3126 30.2179L21.2549 31.9821ZM32.6038 29.28C36.8151 29.28 40.569 30.1865 43.8884 31.9798L44.8391 30.2202C41.1985 28.2535 37.1124 27.28 32.6038 27.28V29.28ZM43.8884 31.9798C47.2145 33.7767 49.8214 36.2525 51.7272 39.416L53.4403 38.384C51.3461 34.9075 48.473 32.1833 44.8391 30.2202L43.8884 31.9798ZM51.73 39.4206C53.6274 42.5324 54.5838 46.0498 54.5838 50H56.5838C56.5838 45.7102 55.5401 41.8276 53.4375 38.3794L51.73 39.4206ZM54.5838 50C54.5838 53.9501 53.6274 57.4897 51.7272 60.644L53.4403 61.676C55.5401 58.1903 56.5838 54.2899 56.5838 50H54.5838ZM51.73 60.6394C49.8249 63.7637 47.2175 66.2217 43.8884 68.0202L44.8391 69.7798C48.47 67.8183 51.3426 65.1163 53.4375 61.6806L51.73 60.6394ZM43.8884 68.0202C40.569 69.8135 36.8151 70.72 32.6038 70.72V72.72C37.1124 72.72 41.1985 71.7465 44.8391 69.7798L43.8884 68.0202ZM32.6038 64.44C35.2404 64.44 37.651 63.8429 39.8124 62.6325L38.8351 60.8875C36.9965 61.9171 34.9271 62.44 32.6038 62.44V64.44ZM39.8255 62.625C41.9841 61.373 43.6733 59.6398 44.8803 57.4413L43.1272 56.4787C42.0942 58.3602 40.6634 59.827 38.822 60.895L39.8255 62.625ZM44.873 57.4543C46.1277 55.2478 46.7438 52.7542 46.7438 50H44.7438C44.7438 52.4458 44.1998 54.5922 43.1345 56.4657L44.873 57.4543ZM46.7438 50C46.7438 47.2458 46.1277 44.7522 44.873 42.5457L43.1345 43.5343C44.1998 45.4078 44.7438 47.5542 44.7438 50H46.7438ZM44.8803 42.5587C43.6716 40.3572 41.9784 38.6405 39.8124 37.4275L38.8351 39.1725C40.6691 40.1995 42.0959 41.6428 43.1272 43.5213L44.8803 42.5587ZM39.8255 37.435C37.662 36.1801 35.2467 35.56 32.6038 35.56V37.56C34.9208 37.56 36.9855 38.0999 38.822 39.165L39.8255 37.435ZM32.6038 35.56C29.9608 35.56 27.5455 36.1801 25.382 37.435L26.3855 39.165C28.222 38.0999 30.2867 37.56 32.6038 37.56V35.56ZM25.3951 37.4275C23.2322 38.6387 21.5223 40.3513 20.2745 42.5457L22.013 43.5343C23.0852 41.6487 24.5353 40.2013 26.3724 39.1725L25.3951 37.4275ZM20.2672 42.5587C19.0571 44.7629 18.4638 47.2518 18.4638 50H20.4638C20.4638 47.5482 20.9904 45.3971 22.0203 43.5213L20.2672 42.5587ZM18.4638 50C18.4638 52.7482 19.0571 55.2371 20.2672 57.4413L22.0203 56.4787C20.9904 54.6029 20.4638 52.4518 20.4638 50H18.4638ZM20.2745 57.4543C21.5206 59.6458 23.2264 61.3748 25.382 62.625L26.3855 60.895C24.5411 59.8252 23.0869 58.3542 22.013 56.4657L20.2745 57.4543ZM25.3951 62.6325C27.5565 63.8429 29.9671 64.44 32.6038 64.44V62.44C30.2804 62.44 28.211 61.9171 26.3724 60.8875L25.3951 62.6325ZM90.9856 63.08H91.9856V62.08H90.9856V63.08ZM90.9856 71V72H91.9856V71H90.9856ZM59.2456 71H58.2456V72H59.2456V71ZM59.2456 64.7L58.559 63.973L58.2456 64.269V64.7H59.2456ZM75.4456 49.4L76.1323 50.127L76.1357 50.1237L75.4456 49.4ZM78.9256 45.2L79.8139 45.6595L79.8201 45.6472L78.9256 45.2ZM78.0856 37.82L77.4509 38.5927L77.4658 38.605L77.4812 38.6167L78.0856 37.82ZM68.1256 37.52L68.5431 38.4287L68.5532 38.4241L68.5631 38.4192L68.1256 37.52ZM64.4056 40.64L63.8641 41.4807L64.6654 41.9968L65.2194 41.2212L64.4056 40.64ZM57.3256 36.08L56.4957 35.5222L55.9268 36.3685L56.7841 36.9207L57.3256 36.08ZM64.1056 30.38L64.5327 31.2843L64.5428 31.2794L64.1056 30.38ZM82.1656 29.84L81.7566 30.7525L81.766 30.7567L81.7755 30.7607L82.1656 29.84ZM87.6256 34.16L86.799 34.7228L86.8059 34.7329L86.8131 34.7429L87.6256 34.16ZM88.1656 47.12L89.0672 47.5527L89.0672 47.5527L88.1656 47.12ZM82.5856 53.96L81.9056 53.2268L81.8991 53.2329L82.5856 53.96ZM72.9256 63.08L72.2391 62.3529L70.4097 64.08H72.9256V63.08ZM89.9856 63.08V71H91.9856V63.08H89.9856ZM90.9856 70H59.2456V72H90.9856V70ZM60.2456 71V64.7H58.2456V71H60.2456ZM59.9322 65.427L76.1322 50.127L74.759 48.673L58.559 63.973L59.9322 65.427ZM76.1357 50.1237C77.8815 48.4592 79.1371 46.9678 79.8138 45.6594L78.0374 44.7406C77.5142 45.7522 76.4498 47.0608 74.7555 48.6763L76.1357 50.1237ZM79.8201 45.6472C80.4786 44.3301 80.8256 42.9979 80.8256 41.66H78.8256C78.8256 42.6421 78.5727 43.6699 78.0312 44.7528L79.8201 45.6472ZM80.8256 41.66C80.8256 39.7218 80.1398 38.1231 78.69 37.0233L77.4812 38.6167C78.3515 39.2769 78.8256 40.2382 78.8256 41.66H80.8256ZM78.7204 37.0473C77.3494 35.9211 75.4224 35.44 73.1056 35.44V37.44C75.1888 37.44 76.5819 37.8789 77.4509 38.5927L78.7204 37.0473ZM73.1056 35.44C71.1321 35.44 69.3198 35.827 67.6882 36.6208L68.5631 38.4192C69.8914 37.773 71.3992 37.44 73.1056 37.44V35.44ZM67.7081 36.6113C66.0608 37.3682 64.6873 38.5252 63.5919 40.0588L65.2194 41.2212C66.124 39.9548 67.2305 39.0318 68.5431 38.4287L67.7081 36.6113ZM64.9471 39.7993L57.8671 35.2393L56.7841 36.9207L63.8641 41.4807L64.9471 39.7993ZM58.1556 36.6378C59.6866 34.3599 61.8017 32.5739 64.5326 31.2842L63.6786 29.4757C60.6496 30.9061 58.2446 32.9201 56.4957 35.5222L58.1556 36.6378ZM64.5428 31.2794C67.2662 29.9555 70.4127 29.28 74.0056 29.28V27.28C70.1586 27.28 66.7051 28.0045 63.6684 29.4806L64.5428 31.2794ZM74.0056 29.28C77.0159 29.28 79.591 29.7817 81.7566 30.7525L82.5747 28.9275C80.1003 27.8183 77.2354 27.28 74.0056 27.28V29.28ZM81.7755 30.7607C83.9818 31.6956 85.6404 33.0211 86.799 34.7228L88.4522 33.5972C87.0508 31.5389 85.0695 29.9844 82.5558 28.9192L81.7755 30.7607ZM86.8131 34.7429C87.9975 36.394 88.6056 38.3644 88.6056 40.7H90.6056C90.6056 37.9956 89.8937 35.606 88.4382 33.5771L86.8131 34.7429ZM88.6056 40.7C88.6056 42.8345 88.1575 44.8261 87.2641 46.6873L89.0672 47.5527C90.0938 45.4139 90.6056 43.1255 90.6056 40.7H88.6056ZM87.2641 46.6873C86.3835 48.5219 84.6286 50.7011 81.9056 53.2268L83.2657 54.6932C86.0626 52.0989 88.0278 49.7181 89.0672 47.5527L87.2641 46.6873ZM81.8991 53.2329L72.2391 62.3529L73.6121 63.8071L83.2721 54.6871L81.8991 53.2329ZM72.9256 64.08H90.9856V62.08H72.9256V64.08Z" fill="url(#paint0_linear_10_68)"/>
<defs>
<linearGradient id="paint0_linear_10_68" x1="7" y1="13" x2="96.9425" y2="18.2326" gradientUnits="userSpaceOnUse">
<stop stop-color="#FF9A22"/>
<stop offset="1" stop-color="#FFA943"/>
</linearGradient>
</defs>
</svg>
