<svg width="35" height="36" viewBox="0 0 35 36" fill="none" xmlns="http://www.w3.org/2000/svg">
<path d="M20.1946 35.2548C19.2567 35.4202 18.4705 35.0752 17.8776 34.4545L14.1956 30.0266C12.5684 27.6541 9.81017 25.7227 6.98284 24.7707L1.56266 22.8252C0.817885 22.7147 0.18355 21.8595 0.0595154 21.1561C-0.105864 20.2181 0.239058 19.432 0.859802 18.839L5.2877 15.1571C7.61889 13.2954 9.59157 10.7716 10.5023 7.70984L12.4478 2.28967C12.5582 1.54489 13.4135 0.910551 14.1169 0.786517C15.0548 0.621137 15.8409 0.966059 16.4339 1.5868L20.1159 6.0147C21.9776 8.34589 24.7358 10.2772 27.5631 11.2293L32.9833 13.1748C33.7694 13.5197 34.3624 14.1405 34.5278 15.0784C34.6932 16.0163 34.3482 16.8024 33.7275 17.3954L29.2996 21.0774C26.9684 22.939 25.0371 25.6973 24.085 28.5246L22.1395 33.9448C21.7532 34.4964 21.1325 35.0894 20.1946 35.2548ZM7.32833 19.8744L8.62476 20.3711C12.4727 21.6267 15.7826 23.9443 18.2786 27.1307L19.1887 28.1791L19.6854 26.8827C20.9411 23.0347 23.2587 19.7249 26.4451 17.2289L27.4934 16.3187L26.197 15.822C22.3491 14.5664 19.0392 12.2488 16.5432 9.06235L15.6331 8.01399L15.1364 9.31042C13.8807 13.1583 11.5631 16.4682 8.37669 18.9642L7.32833 19.8744Z" fill="#0075FF"/>
</svg>
